<?xml version="1.0" encoding="utf-8"?>
<!-- Generator: Adobe Illustrator 27.5.0, SVG Export Plug-In . SVG Version: 6.00 Build 0)  -->
<svg version="1.1" xmlns="http://www.w3.org/2000/svg" xmlns:xlink="http://www.w3.org/1999/xlink" x="0px" y="0px"
	 viewBox="0 0 2500 2500" style="enable-background:new 0 0 2500 2500;" xml:space="preserve">
<g id="_x31_4-_404_Page">
	<g>
		<path style="opacity:0.1;fill:#FAD077;" d="M694.544,2094.243h1141.769c179.357-158.218,292.523-389.722,292.523-647.677
			c0-476.874-386.543-863.417-863.417-863.417C788.595,583.149,402,969.693,402,1446.567
			C402,1704.522,515.182,1936.026,694.544,2094.243z"/>
		<ellipse style="opacity:0.1;fill:#FAD077;" cx="1020.443" cy="1243.213" rx="649.279" ry="783.738"/>
		<ellipse style="opacity:0.1;fill:#FAD077;" cx="1428.166" cy="1160.404" rx="625.18" ry="754.648"/>
		<path style="fill:none;stroke:#EFE1BF;stroke-width:2.5784;stroke-miterlimit:10;stroke-dasharray:6.446;" d="M1488.688,783.605
			c-107.264-61.541-247.443-45.922-353.114,18.316S955.323,972.304,905.076,1085.3c-70.634,158.843-96.713,347.896-22.013,504.869
			c77.853,163.6,259.58,266.001,440.751,267.714s356.695-89.103,476.682-224.856c75.425-85.336,132.712-203.055,97.391-311.331
			c-25.159-77.125-93.294-133.747-167.422-166.706c-104.927-46.654-227.221-52.914-336.363-17.217
			c-109.142,35.697-204.102,113.012-261.181,212.652c-65.974,115.167-80.138,252.478-81.858,385.193
			c-1.125,86.8-0.52,182.394-57.057,248.266c-43.543,50.733-114.952,72.439-181.419,65.222
			c-66.466-7.217-128.031-40.45-178.943-83.783c-115.481-98.289-180.903-253.997-165.601-404.869s112.732-291.91,250.419-355.463
			c137.687-63.553,310.796-45.032,429.15,49.779c107.376,86.017,162.077,219.51,230.681,338.766s170.55,237.747,307.514,250.754
			c124.322,11.807,244.017-72.728,301.332-183.68c57.316-110.952,61.343-242.532,42.41-365.97
			c-14.071-91.743-41.857-184.905-103.45-254.338c-55.927-63.045-138.159-101.989-222.37-105.311
			c-84.211-3.322-169.255,29.023-229.974,87.467c-83.334,80.21-116.009,199.962-126.012,315.193s-0.988,231.892-17.648,346.35
			c-7.063,48.523-24.687,103.573-70.583,120.835c-51.138,19.233-104.483-19.639-143.898-57.473
			c-81.479-78.209-156.211-163.445-223.093-254.452c-81.326-110.659-153.072-236.49-157.773-373.739
			c-4.177-121.96,47.305-243.068,131.62-331.287s199.494-144.303,319.638-165.685c79.523-14.153,164.818-12.947,236.977,23.349
			c68.447,34.429,118.883,97.428,153.744,165.656c43.38,84.901,65.709,182.222,52.479,276.641
			c-13.231,94.419-64.36,185.066-144.586,236.58c-80.226,51.514-189.551,59.004-271.369,10.056
			c-88.268-52.807-132.604-163.254-122.003-265.565c10.601-102.31,69.495-195.29,146.378-263.619
			c58.57-52.053,129.103-92.16,205.925-107.599c76.822-15.439,160.069-4.793,226.563,36.662
			c84.227,52.511,133.552,148.155,154.558,245.161c43.579,201.244-26.031,423.179-176.738,563.485s-377.046,193.894-574.665,136.058
			"/>
		<polygon style="fill:#2D2C2B;" points="1002.987,1072.939 1002.987,1185.146 958.665,1185.146 958.665,1267.152 846.457,1267.152 
			846.457,1185.146 617.834,1185.146 617.74,1072.939 810.55,769.323 943.517,769.323 750.613,1072.939 846.457,1072.939 
			846.457,969.053 958.665,969.053 958.665,1072.939 		"/>
		<polygon style="fill:#2D2C2B;" points="1882.26,1072.939 1882.26,1185.146 1838.031,1185.146 1838.031,1267.152 
			1725.823,1267.152 1725.823,1185.146 1497.107,1185.146 1497.013,1072.939 1689.823,769.323 1822.789,769.323 1629.885,1072.939 
			1725.823,1072.939 1725.823,969.053 1838.031,969.053 1838.031,1072.939 		"/>
		<path style="fill:#2D2C2B;" d="M1250.004,1413.443c-93.945,0-170.376-76.424-170.376-170.369v-156.777
			c0-93.945,76.431-170.376,170.376-170.376c93.945,0,170.369,76.431,170.369,170.376v156.777
			C1420.372,1337.019,1343.948,1413.443,1250.004,1413.443z M1250.004,1030.883c-30.559,0-55.415,24.856-55.415,55.415v156.777
			c0,30.552,24.856,55.407,55.415,55.407c30.552,0,55.407-24.856,55.407-55.407v-156.777
			C1305.411,1055.739,1280.555,1030.883,1250.004,1030.883z"/>
		<rect x="799.986" y="1338.697" style="fill:#FFC00B;" width="585.542" height="755.547"/>
		<rect x="799.986" y="1338.697" style="fill:#FFC00B;" width="585.542" height="755.547"/>
		<rect x="1385.528" y="1338.697" style="fill:#FFCD3C;" width="314.487" height="755.547"/>
		<polygon style="fill:#FFCD3C;" points="1385.528,1338.697 1307.549,1540.474 722.007,1540.474 799.986,1338.697 		"/>
		<polygon style="fill:#FFC00B;" points="1700.014,1338.697 1777.993,1540.474 1463.507,1540.474 1385.528,1338.697 		"/>
		<polygon style="fill:#E47F0D;" points="1101.042,1650.14 1101.042,2094.232 902.427,2094.243 893.429,1638.54 894.972,1638.629 
			913.938,1639.687 934.537,1640.834 996.243,1644.274 1016.267,1645.421 1046.525,1647.097 		"/>
		<polygon style="fill:#C46200;" points="902.427,2094.232 791.735,2094.232 794.673,1642.147 865.464,1645.719 893.429,1638.53 		
			"/>
		<polygon style="fill:#E47F0D;" points="902.427,2094.232 791.735,2094.232 854.393,1983.082 		"/>
		<path style="fill:#494949;" d="M1056.857,1668.923c-0.84-0.074-1.787-0.031-2.846,0.171c-1.562,0.299-2.588,1.806-2.288,3.368
			c0.299,1.562,1.797,2.595,3.368,2.288c1.68-0.325,2.098,0.186,2.276,0.399c0.832,0.994,4.319,7.708-8.907,42.601
			c-4.899,12.917-10.948,28.081-18.669,42.614c-9.811,18.463-20.894,32.935-32.052,41.857c-12.331,9.859-24.6,12.422-32.012,6.684
			c-9.105-7.048-12.106-26.757-8.025-52.714c1.799-11.448,4.663-23.34,7.429-34.84c2.741-11.375,5.574-23.141,7.41-34.593
			c0.99-6.142,1.331-11.004-0.22-14.754c-1.265-3.056-4.083-4.788-7.225-4.443c-1.58,0.179-2.714,1.608-2.532,3.188
			c0.179,1.577,1.584,2.703,3.188,2.532c0.676-0.084,1.054,0.46,1.248,0.924c1.097,2.655,0.543,7.373-0.142,11.639
			c-1.806,11.235-4.611,22.89-7.324,34.161c-2.796,11.61-5.686,23.613-7.523,35.292c-2.117,13.474-5.363,46.119,10.19,58.161
			c9.626,7.447,24.62,4.866,39.136-6.741c14.865-11.884,26.444-30.298,33.538-43.65c7.873-14.816,14.009-30.189,18.971-43.276
			c15.091-39.818,9.703-46.234,7.931-48.344C1060.834,1670.329,1059.283,1669.138,1056.857,1668.923z"/>
		<path style="fill:#494949;" d="M732.557,1817.725c-1.477,0-2.557-0.573-3.186-1.031c-2.7-1.969-5.931-7.523-2.863-32.94
			c1.11-9.196,2.61-20.056,5.328-30.87c2.453-9.759,6.999-23.509,14.726-33.595c7.686-10.022,17.229-14.147,24.892-10.747
			c12.237,5.412,15.393,27.184,16.182,36.294c0.677,7.816,0.726,15.999,0.774,23.912c0.046,7.648,0.094,15.556,0.713,23.02
			c0.14,1.666,0.466,5.565,1.622,7.136c1.355-0.494,2.919,0.265,3.42,1.609c0.504,1.35-0.117,2.926-1.467,3.431
			c-2.241,0.833-4.663,0.071-6.153-1.946c-1.874-2.547-2.335-6.392-2.618-9.797c-0.639-7.666-0.688-15.676-0.733-23.423
			c-0.046-7.808-0.094-15.884-0.754-23.494c-1.477-17.046-6.372-29-13.096-31.975c-5.29-2.328-12.591,1.261-18.642,9.153
			c-5.69,7.421-10.465,18.38-13.809,31.692c-2.646,10.534-4.116,21.189-5.206,30.225c-3.023,25.03,0.598,27.987,0.754,28.099
			c0.168,0.13,0.754-0.145,0.818-0.173c1.317-0.604,2.86-0.028,3.459,1.279c0.604,1.309,0.028,2.857-1.279,3.458
			C734.357,1817.54,733.395,1817.725,732.557,1817.725z"/>
		<polygon style="fill:#928749;" points="805.223,1783.218 791.72,2094.243 654.525,2067.595 661.197,1795.883 681.413,1794.125 
			699.591,1792.527 755.683,1787.573 774.381,1785.935 791.64,1784.417 		"/>
		<polygon style="fill:#2D2C2B;" points="805.214,1789.058 851.534,1789.058 856.237,2081.823 791.735,2094.243 		"/>
		<path style="fill:#494949;" d="M695.977,1811.921c-2.063,0-3.397-0.96-4.085-1.648c-2.531-2.521-5.03-8.962,2.473-35.657
			c2.728-9.701,6.151-21.12,10.865-32.265c4.253-10.06,11.415-24.052,21.373-33.574c9.854-9.416,20.682-12.24,28.267-7.378
			c12.146,7.793,11.906,31.621,11.239,41.502c-0.576,8.501-1.887,17.295-3.153,25.796c-1.228,8.236-2.496,16.753-3.074,24.895
			c-0.14,1.986-0.433,6.122,0.578,8.058c0.183,0.351,0.329,0.318,0.372,0.306c1.424-0.26,2.789,0.629,3.077,2.037
			c0.285,1.413-0.627,2.789-2.037,3.076c-2.47,0.486-4.826-0.685-6.036-3.008c-1.406-2.692-1.477-6.28-1.154-10.839
			c0.591-8.343,1.874-16.959,3.115-25.295c1.253-8.399,2.547-17.086,3.107-25.379c1.261-18.655-2.048-32.398-8.85-36.76
			c-5.366-3.448-13.946-0.792-21.844,6.757c-7.373,7.05-14.351,18.059-20.176,31.837c-4.602,10.877-7.964,22.101-10.646,31.644
			c-7.33,26.084-4.195,30.172-3.815,30.554c0.171,0.166,0.55,0.168,1.131,0.005c1.373-0.397,2.83,0.407,3.222,1.796
			c0.395,1.385-0.41,2.827-1.795,3.222C697.34,1811.827,696.624,1811.921,695.977,1811.921z"/>
		<path style="fill:#494949;" d="M1763.172,1775.382c1.703,0,2.948-0.661,3.674-1.189c3.113-2.27,6.84-8.675,3.301-37.984
			c-1.281-10.605-3.01-23.127-6.144-35.597c-2.828-11.254-8.07-27.109-16.98-38.739c-8.863-11.556-19.867-16.314-28.704-12.393
			c-14.111,6.241-17.75,31.347-18.66,41.852c-0.781,9.013-0.837,18.449-0.893,27.573c-0.053,8.819-0.109,17.938-0.822,26.546
			c-0.161,1.921-0.537,6.417-1.871,8.229c-1.562-0.57-3.365,0.305-3.944,1.856c-0.581,1.557,0.135,3.374,1.692,3.956
			c2.584,0.96,5.377,0.082,7.095-2.244c2.161-2.937,2.693-7.371,3.019-11.298c0.737-8.84,0.793-18.076,0.846-27.01
			c0.053-9.004,0.109-18.317,0.869-27.092c1.703-19.656,7.348-33.441,15.101-36.871c6.1-2.684,14.52,1.454,21.497,10.555
			c6.561,8.558,12.067,21.195,15.923,36.545c3.051,12.146,4.746,24.434,6.003,34.854c3.486,28.863-0.69,32.272-0.869,32.401
			c-0.194,0.15-0.869-0.167-0.943-0.2c-1.518-0.696-3.298-0.032-3.988,1.474c-0.696,1.51-0.032,3.295,1.474,3.988
			C1761.096,1775.167,1762.206,1775.382,1763.172,1775.382z"/>
		<polygon style="fill:#E47F0D;" points="1679.378,1735.59 1694.95,2094.243 1853.153,2063.514 1845.459,1750.194 
			1822.148,1748.167 1801.186,1746.324 1736.505,1740.612 1714.944,1738.723 1695.042,1736.972 		"/>
		<polygon style="fill:#2D2C2B;" points="1679.389,1742.324 1625.975,1742.324 1620.552,2079.92 1694.932,2094.243 		"/>
		<path style="fill:#494949;" d="M1805.353,1768.689c2.379,0,3.918-1.107,4.711-1.9c2.919-2.907,5.8-10.335-2.852-41.118
			c-3.145-11.186-7.092-24.355-12.528-37.206c-4.904-11.6-13.163-27.735-24.646-38.715c-11.362-10.857-23.849-14.114-32.595-8.508
			c-14.006,8.987-13.729,36.463-12.96,47.858c0.664,9.803,2.176,19.944,3.636,29.747c1.416,9.498,2.878,19.318,3.545,28.707
			c0.161,2.291,0.499,7.06-0.667,9.292c-0.211,0.405-0.379,0.367-0.429,0.352c-1.642-0.3-3.216,0.725-3.548,2.349
			c-0.329,1.63,0.723,3.216,2.349,3.548c2.849,0.561,5.565-0.79,6.96-3.468c1.621-3.104,1.703-7.242,1.33-12.499
			c-0.681-9.621-2.161-19.556-3.592-29.168c-1.445-9.686-2.937-19.703-3.583-29.265c-1.454-21.512,2.361-37.359,10.205-42.39
			c6.188-3.976,16.082-0.913,25.189,7.791c8.502,8.129,16.549,20.825,23.265,36.713c5.307,12.543,9.183,25.485,12.276,36.49
			c8.452,30.078,4.837,34.792,4.399,35.233c-0.197,0.191-0.634,0.194-1.304,0.006c-1.583-0.458-3.263,0.47-3.715,2.07
			c-0.455,1.598,0.473,3.26,2.07,3.715C1803.782,1768.58,1804.607,1768.689,1805.353,1768.689z"/>
	</g>
</g>
<g id="Layer_1">
</g>
</svg>
